<?xml version="1.0" encoding="UTF-8" standalone="no"?>
<!-- Generator: Adobe Illustrator 12.0.0, SVG Export Plug-In  -->

<svg
   xmlns:dc="http://purl.org/dc/elements/1.1/"
   xmlns:cc="http://creativecommons.org/ns#"
   xmlns:rdf="http://www.w3.org/1999/02/22-rdf-syntax-ns#"
   xmlns:svg="http://www.w3.org/2000/svg"
   xmlns="http://www.w3.org/2000/svg"
   xmlns:sodipodi="http://sodipodi.sourceforge.net/DTD/sodipodi-0.dtd"
   xmlns:inkscape="http://www.inkscape.org/namespaces/inkscape"
   version="1.0"
   width="2813.375"
   height="1345.625"
   viewBox="0 0 1015.941 486.66771"
   enable-background="new 0 0 325 217"
   xml:space="preserve"
   id="svg2"
   sodipodi:version="0.32"
   inkscape:version="0.48.1 "
   sodipodi:docname="AJAX.svg"
   inkscape:output_extension="org.inkscape.output.svg.inkscape"
   sodipodi:modified="true"><metadata
   id="metadata9"><rdf:RDF><cc:Work
       rdf:about=""><dc:format>image/svg+xml</dc:format><dc:type
         rdf:resource="http://purl.org/dc/dcmitype/StillImage" /></cc:Work></rdf:RDF></metadata><sodipodi:namedview
   inkscape:window-height="1003"
   inkscape:window-width="1280"
   inkscape:pageshadow="2"
   inkscape:pageopacity="0.0"
   guidetolerance="10.0"
   gridtolerance="10.0"
   objecttolerance="10.0"
   borderopacity="1.0"
   bordercolor="#666666"
   pagecolor="#ffffff"
   id="base"
   inkscape:zoom="0.23472017"
   inkscape:cx="1846.7662"
   inkscape:cy="577.14206"
   inkscape:window-x="-4"
   inkscape:window-y="-4"
   inkscape:current-layer="svg2"
   showgrid="false"
   fit-margin-top="0"
   fit-margin-left="0"
   fit-margin-right="0"
   fit-margin-bottom="0"
   inkscape:window-maximized="0" />
<defs
   id="defs4" />

<g
   id="g1897"
   transform="translate(-90.124167,474.21782)"><path
     style="fill:#ff0000;fill-opacity:1;fill-rule:evenodd;stroke:none"
     d="m 1814.6875,-2370.1875 -0.4375,0.3125 -2.5625,4.4375 -1.5625,5.6875 -3.1875,6.3438 -0.625,6.3437 -2.5313,3.7813 -2.2187,2.2187 -0.625,3.1563 -2.5313,4.75 -2.2187,1.9062 -1.2813,2.8438 -2.8437,1.9062 -5.0625,3.1875 -4.75,2.2187 -6.9688,0 -1.9062,3.7813 -6.3125,0 -0.3437,8.875 4.125,3.7813 3.8124,0.6562 1.9063,4.0938 2.2187,2.2187 3.1563,1.2813 5.0625,3.8124 2.8438,2.8438 0.625,8.5312 3.1874,2.2188 0,4.125 -2.5312,0.625 -2.5312,1.5938 -0.3126,5.6874 2.5313,4.75 3.4687,5.7188 c 0,0 1.5979,3.7958 1.2813,5.0625 -0.3167,1.2667 -0.3437,13.625 -0.3437,13.625 l 2.5624,3.7813 0,7.9374 4.4063,6 3.1875,4.4376 4.125,2.5312 0,6.6562 -2.5625,6 -2.5313,2.875 -4.0937,1.25 -6.0313,4.4376 -8.1562,0.9374 -4.5,0.25 -3.4062,5.2188 -0.875,2.625 -2.2188,0 -3.6562,-2.3125 -4.0313,-1.3437 -4.4375,-4.9063 0,-4.0313 -2.6875,-2.2187 c 0,0 -3.1541,-4.0435 -3.3125,-4.2813 -0.1583,-0.2374 -3.0938,-3.4062 -3.0938,-3.4062 l -1.6562,-1.4062 -3.5625,1.25 -0.9687,4.125 -0.625,0 -1.9063,1.9062 c 0,0 -5.7023,0.625 -6.9687,0.625 l -10.4376,0 -2.5312,-1.25 -10.4375,0 -7.625,0 -2.5313,4.75 -2.8437,2.5312 -0.3125,10.4376 4.125,3.5 2.5312,3.1562 3.4688,2.5312 -0.3125,2.5313 -3.4687,1.5937 -2.5313,3.1563 -2.2187,3.1563 -9.1876,-0.9376 -6.9687,2.5313 -3.8125,2.8437 -4.75,4.75 -2.8438,3.1876 -1.5937,6 -2.5313,8.25 0.9688,10.4374 3.1562,3.4688 -0.9374,14.5938 -1.9063,0 -2.8437,2.5312 -1.5938,3.4688 -2.5312,6.9687 -1.5938,4.75 -9.5,1.9063 -10.125,-1.5938 -0.9688,-2.2188 -1.25,-2.2187 0.3126,-6.3125 4.125,-1.2812 0.9374,-6.3438 2.2188,-0.9375 0,-3.8125 -1.5625,-3.1562 -1.2813,-3.4688 -2.5312,-0.9688 0.625,-8.2187 -2.8438,-2.8437 0,-4.125 2.2188,-2.2188 -0.4688,-5.1562 -2.4687,-3.4063 -2.5937,-2.4375 -1.5313,-3.5 -2.8437,-0.875 c 0,0 -2.2166,3.4166 -2.375,3.8125 -0.1586,0.3958 -2.5313,2.2813 -2.5313,2.2813 l -0.3125,5.0937 -2.9375,-0.25 -2.0625,-1.0313 -0.2188,-3.4062 1.5626,-0.7812 1.0312,-3.25 1.6875,-1.3438 1.0313,-5.9375 2.375,-1.3437 -0.4063,-3.5 -3.25,-0.875 -0.4063,-3.625 -2.6874,-3.9688 0,-11.25 -4.9688,0 -4.9062,-2.6875 -2.7188,-0.375 0,-2.6875 3.1875,-3.1875 -2.2187,-3.1563 -0.4688,-3.0937 -2.7188,-2.6875 -0.8437,-8.5625 -3.1875,-1.7187 -1.3438,-2.7188 -1.8124,-1.3438 -3.5626,-2.6874 -2.6874,-3.1563 0,-4.0313 -2.2188,-1.3437 -0.4688,-2.2187 -8.4687,-0.875 -10.7813,0 -3.5624,2.6874 -4.0313,0 -4.0313,-2.6874 -2.2187,-0.875 -3.1875,-2.6876 -0.875,3.0938 -0.9375,4.5 -3.5625,3.5625 -5.375,0 -1.1875,-4.125 -1.125,-2.2813 -4.0313,-1.4374 -2.375,-1.6563 -5.6874,-0.1563 -1.5938,2.125 -0.625,2.875 -2.625,0 -2.125,-2.7187 -16.875,0.094 -0.9375,1.9063 -3.5,0.1563 -1.1875,-1.8126 -6.25,-0.3437 -3,-0.5313 -2.625,-2.1562 -1.6562,-2.5938 -1.0313,-3.3437 -0.625,-1.5625 -1.2813,1.0312 -2.4374,1.5626 -1.6563,2.5312 0,7.2812 1.9687,2.7813 -1.0312,1.5 -2.5312,3.8125 -2.2188,6.6562 -3.8125,0.625 -1.5625,-1.9062 -6.3438,0 -4.4374,3.1562 0,6.3438 -4.125,1.9062 -0.9376,8.875 4.125,3.4688 5.6876,1.9062 4.4374,3.4688 1.2813,3.8125 3.4687,1.2813 1.9063,2.5312 -1.9063,2.5312 -2.8437,2.5313 -1.5937,4.75 -1.9063,3.7813 -2.2187,-3.1563 c 0,0 -5.9979,0.625 -8.5313,0.625 -2.5334,0 -3.796,2.5541 -5.0625,3.1875 -1.2667,0.6332 -1.5938,3.7812 -1.5938,3.7812 l -0.625,7.2813 -3.8124,3.5 -2.8438,3.7813 -3.1562,0.3124 -3.1876,-1.25 -2.5312,-0.625 -4.0938,2.8438 -0.1874,4.125 -0.3126,10.75 1.1876,2.1562 0.6562,3.1563 -2.4688,2.2813 -4.3437,0.3124 -2.5313,2.4688 -2.9374,0.3125 -2.0626,2.2187 -3.3124,2.6876 -8.1563,-0.9376 -1.3437,-1.75 -2.5313,-0.4687 -1.125,-5.3125 -1.4375,-1.25 -0.625,-2.875 -2.125,-0.9375 -3.5,-1.8125 -6.0938,-0.4688 c 0,0 -4.1097,1.6523 -4.75,1.8126 -0.6393,0.1597 -10.4374,2.2187 -10.4374,2.2187 l -12.75,1.9063 -14.7188,-0.5 -4.8438,-2.5313 -6.5624,-0.4687 -1.125,-1.9688 -3.4688,-2.375 -1.75,-4.125 -3.875,-1.1875 -1.5938,-4.5937 -0.4687,-3.4063 -3.0937,0 -1.875,2.1563 -0.9688,1.4062 c 0,0 -3.9535,2.375 -4.5938,2.375 -0.6393,0 -2.7666,3.5514 -3.4062,4.0312 -0.6398,0.4801 -3.4688,4.4376 -3.4688,4.4376 l -1.6562,4.0312 -1.5938,4.5938 -1.4374,3.25 0.5,13.2187 -1.75,-0.625 -1.125,-2.5313 -4.1876,-0.4687 -3,-2.8437 -4.1874,-2 -5.875,-1.5626 -5.7813,-3.5 -5.7813,-1.5 0.3126,-2.375 -1.875,-4.125 -0.9688,-2.9374 -4.5,0.6562 -2.6875,1.9688 -6.9063,2.2187 -2.8437,0.3125 -1.8125,3.1562 -1.9062,8.6563 0,14.0937 -1.2813,1.5626 -5.9375,0.1562 -3.1562,2.4688 -2.0626,2.6874 0.3126,4.6563 2.0624,1.5937 3.0313,2.8438 -0.1875,4.375 -2.1875,1.5625 -8.3125,0.8125 c 0,0 -1.5827,1.5788 -2.0625,2.2188 -0.4801,0.6395 -5.9375,0.3124 -5.9375,0.3124 l -1.9062,2.125 -2.3126,2.375 -2.375,4.8438 -3.4687,1.7188 -4.3437,1.9062 -1.2813,2.0625 -3.875,-0.1563 -2.8437,-4.125 -0.1563,-6.25 -3.1875,-6.25 -2.75,-6.4062 -1.5938,-6.1875 -5.1562,-1.5 -0.875,-0.4063 0,478.125 1.4375,-0.5 8.875,-2.6874 7.0313,-1.25 2.875,-1.4376 1.8124,-2.6874 1.4063,-2.2188 2.5313,-0.9375 1.375,-1.5937 5.4374,-0.7188 5.9376,-2.2812 14.0312,-0.1563 5.375,-0.8125 5.625,-2.75 1.4375,-4.5312 2.5937,-1.3438 3.3438,-2.125 3.0625,-2.7812 4.0625,-1.25 1.9688,-2.3126 3.875,-1.25 c 0,0 1.4254,-4.6831 1.1874,-5 -0.2372,-0.3166 -2.3103,-2.6208 -2.4687,-2.9374 -0.1584,-0.3169 -5.6875,-0.9376 -5.6875,-0.9376 l -2.375,-2.625 -0.4062,-4.75 -0.5313,-19.1562 1.4063,-8.5312 3.7187,-6.1876 2.9375,-3.4062 0.5625,-3.6562 2.2187,-2.125 8.0626,-3 5.4687,-1.4376 1.5,-2.4374 2.5313,-0.094 1.5937,1.9688 0.4687,6.4374 c 0,0 1.4354,0.3169 1.5938,0 0.1584,-0.3165 1.4062,-2.2187 1.4062,-2.2187 l 0.8126,-2.3125 -1.9063,-0.9375 c 0,0 -1.125,-5.6208 -1.125,-5.9375 0,-0.3166 1.9063,-2.2188 1.9063,-2.2188 l 1.75,-6.25 2.625,-7.2812 2.375,-5.625 2.9062,-5 0.4688,-4.2812 -3.9376,-3.7188 c 0,0 -6.1018,-1.0269 -6.6562,-1.3438 -0.554,-0.3166 -3.5,-5.375 -3.5,-5.375 l -0.625,-7.2187 0.8125,-10.1875 3.5625,-2.875 2.5938,-6 4.375,-7.2188 3.375,-2.6874 1.9062,-2.5938 6.0312,-2.0625 6.6563,-5.1563 4.75,-3.0937 7.75,-2.0625 5.0625,-2.5312 4.5,-4.1876 3.0938,-0.625 2.2187,-2.375 c 0,0 4.2813,-3.4957 4.2813,-3.8124 0,-0.3169 0.4687,-8.375 0.4687,-8.375 l -2.4375,-2.375 -0.1562,-2.9376 3.1562,-3 1.9688,-2.2187 4.0312,-4.375 4.4375,-3.4687 1.5,-1.5 3.4063,-1.6563 8.1562,-1.5313 4.2812,-1.4062 5.875,-1.5 3.875,-2.5312 5.2188,-2.3126 4.2812,-2.5312 c 0,0 3.6408,-4.8396 3.7188,-5.1562 0.079,-0.3169 4.5,-1.6563 4.5,-1.6563 l 2.0625,-2.125 8.5625,-0.9687 6.1562,-2.0313 1.4376,-5.5625 1.3437,-1.5625 1.0313,-9.0313 2.6874,-1.9062 5.5313,-1.1875 10.6875,-0.3125 2.625,-2.4688 8.5625,-1.6562 4.9687,-2.5312 3.0938,-1.9688 1.2812,-2.2188 4.0313,-1.3437 4.8125,-2.0625 4.9062,-3.1875 5.4688,-2.125 4.75,-2.4375 2.2188,-2.625 2.625,-5.1562 3.5624,-0.7813 0.7813,0.062 0.4063,0.25 1.0312,-4.6562 2.2812,-4.6876 4.3438,-0.9374 2.7188,-3.0313 7.8124,-2.8437 5.7813,-3.4688 14.9063,-0.3125 6.9687,-1.5937 5.0625,-0.3126 4.4375,-5.0624 1.875,-1.9063 0.3125,-1.5937 -1.5625,-1.25 -0.9687,-4.75 2.2187,-0.3126 1.5937,-2.875 1.5938,-2.8437 1.5625,-1.9063 3.5,0 1.25,-2.8437 3.5,-1.25 3.4687,0 1.5938,-3.1875 2.2188,-2.2188 3.4687,-1.25 2.2187,-1.2812 5.4063,0 2.5313,-2.5312 2.2187,0 2.5313,-1.9063 3.1562,-1.25 2.2188,-1.9063 2.5312,-1.25 1.2812,-0.9687 4.4063,-0.9375 1.2813,-1.2812 3.8124,-0.625 2.1876,-2.5313 8.875,-0.1563 8.25,-0.4687 4.5937,1.0937 3.9375,2.5313 3.8125,1.125 2.2187,2.6875 4.5938,2.0625 3,1.0937 6.9688,0 1.5937,2.6876 6.3125,0.3124 2.0625,-3.9374 1.9063,-1.125 0,-0.9376 -2.8438,-2.6874 -4.9062,0 -3.3438,-1.5938 -7.4375,0 -2.6875,-2.375 0.3125,-1.2812 5.375,-0.1563 3.9687,1.9063 4.75,1.75 5.375,-0.625 6.5,-0.3126 2.5313,1.875 2.375,1.125 2,2.75 2.2813,1.125 3.3124,0 1.2813,-4.1874 3,-1.75 7.4375,0.625 2.6875,2.375 8.4063,0 7.75,0 3.5,1.9062 4.0937,1.0938 3.1875,1.4374 2.0625,2.2188 -2.5313,0.9375 -3.5,1.4375 -2.8437,1.0938 -2.2187,1.125 -3,-0.625 -3.25,-0.6563 -5.875,-0.625 -3.875,0.1563 -1.9063,-0.063 -1,-2.625 -2.0625,0.1563 -2,1.8125 1.0312,2.5312 3.5626,1.375 2,0.5313 1.5624,1.2813 5.4688,0.625 2.0625,1.5937 6.5,0.625 4.3437,1.8125 5.0626,1.0312 1.9062,1.75 7.4375,0.4063 2.0625,1.7187 6.8125,2.625 4.5937,0.625 6.9688,0 1.3438,1.8438 5.8437,0.7812 7.6875,0 2.7812,1.6563 10.1876,0.5625 4.9374,2.375 6.4063,1.0938 1.5625,1.8437 3.0938,0.1563 0.3124,-3.6563 1.2813,-1.0937 0.3125,-3.7188 c 0,0 -1.4584,-1.8438 -1.9062,-1.8438 -0.4479,0 -7.1275,-0.7812 -7.6876,-0.7812 -0.5596,0 -1.0937,-1.9688 -1.0937,-1.9688 l 0,-7.625 3.6563,-0.5312 2.125,-2.3125 3,-0.1563 2.625,-2.125 1.9062,0.3126 1.7188,1.5624 3.4062,1.4376 1.125,2.125 1.0938,1.9062 0.25,10.8438 0.7812,5.875 1.9062,2.2812 -0.3124,2.2188 3,0.9687 1.3437,1.875 3,-1.7187 2.7813,1.25 5.625,0.25 4.9062,3.7187 3.0938,0.7187 9.9062,0.4688 1.3438,1.9062 8.8437,0.5313 7.6875,-1.25 3.5625,-1.9063 6.3437,0.25 2.0626,2.2188 4.5937,2.75 5.5313,2.5312 6.6562,1.9063 8.8438,1.2813 3.1874,2.2187 12.0313,0.625 4.125,1.25 11.7187,1.2813 5.0626,1.5937 11.7187,1.25 3.1563,1.9063 8.2187,-0.625 6.3437,3.4687 4.75,1.5937 4.1876,1.5938 7.2187,2.9062 6,1.75 8.7187,0 2.6876,1.0938 1.5937,2.9375 6.9687,1.5937 3.3126,1.0938 5.4062,3.3438 3.1562,0 2.4376,2.9062 2.4687,1.375 9.4063,0.6875 6.5,1.125 0.4062,4.4375 3.625,2.2812 2.4688,1.5938 0.2187,4.1875 2.2187,1.5937 3.5626,1.5626 0.9687,2.2187 0.875,11.4063 -1.5937,12.5937 -1.5938,2.2187 -2.4375,2.9376 -1.3437,4.4374 -1.3438,2.2813 0,4.1875 2.9062,1.5938 0.875,3.1562 1.8438,3.0938 2.9062,1.3437 5.1563,0.25 3,0.4687 4.9063,1.5938 3.0312,1.875 3.9375,1.5938 2.2187,2.0624 0.625,1.5938 9.1876,0.3125 6.6562,2.2187 4.5938,1.5626 5.875,3.5 3,2.5312 3.3124,0.7812 1.9063,1.2813 4.5937,1.25 1.0938,0.9063 0,-8.5938 -0.9375,-0.8438 -2.8437,-2.5312 -1.9063,-2.0625 -0.4687,-2.5313 3.9374,-0.1562 1.75,-1.2812 0.4688,-6 0,-19.8126 -1.25,-1.75 0.4688,-6.4687 0.7812,-1.0625 0,-424.75 -7.125,2.25 -6.7188,0 0.875,8.9375 3.5626,3.0937 0.4687,13 -4.9063,6.3126 -5.8437,1.75 -12.0313,0.9374 -2.3124,1.75 -4.0313,0.875 -7.125,4.5 -3.5625,2.7188 -5,5.375 -1.3438,4.4375 -5.3124,0.9375 -5.375,5.7812 -12.0938,1.8126 -12.5312,-1.8126 -6.7188,-1.75 -10.2812,-4.9687 -5,-2.2187 -1.3438,-4.0313 -4.4375,-6.2813 -5.6875,-7.75 0,-9.5 2.9062,-4.0312 2.875,-7.2812 -2.1562,-7.0626 -7.0312,-0.9374 -5.4688,-2.3126 -4.2812,-3.4687 -3.625,-4.4375 -1.1876,-4.9062 -5.25,-2.4376 -9.8124,-0.9687 -2.8438,3.1563 -16.1562,1.9062 -1.5626,4.4375 -2.2187,5.7187 -0.9687,0 -0.9376,-3.5 -1.5937,-1.9062 0,-2.2188 0.3125,-15.1874 -1.5625,-2.8438 -1.5937,-3.1875 -1.2813,-1.5625 -2.2187,-8.25 -0.9376,-3.4688 -4.125,-1.2812 -4.0937,0 -1.2813,-2.8438 2.5313,-1.5937 2.8437,-0.9375 0,-2.5312 -1.25,-1.5938 -6.6562,-0.3125 -3.1562,-0.3125 0,-7.9062 -1.9063,-0.9688 -0.875,-9.7188 -4.125,-1.9062 -4.0313,-5.625 -3.5624,-3.1562 -11.4688,1.0312 c 0,0 -4.095,4.2384 -4.375,4.4062 -0.2802,0.1684 -2.2188,3.6563 -2.2188,3.6563 l -2.125,2.9375 -1.4374,-0.1562 -1.875,-2.5313 -1.9063,-4.4375 -1.9063,0.625 -1.5937,2.2188 -9.5,0.625 -4.4375,-1.25 -4.4062,-4.125 -2.5313,-7.5938 -1.3125,-4.4375 -40.6875,0 z m -131.7187,383.5 -1.4063,0.1563 -2.5313,3.1562 -0.3437,2.2188 -2.0313,0.1562 -1.9062,2.8438 -2.375,2.2187 -7.9375,0 -4.9063,0.1563 -2.8437,-2.8438 -6.6563,0 -2.8437,-2.375 -3.4687,0 -0.8126,1.0938 3.0313,0.9687 2.375,1.9063 4.75,0.7812 3.3125,0.3125 1.9062,1.4375 3.625,0.1562 4.9063,0.3126 1.4375,0.875 5.1562,-0.25 2.5938,-2.2188 1.75,-3.625 2.6875,0.1562 0.9687,-4.2812 4.0938,-1.2812 -2.5312,-2.0313 z m 11.0937,9.875 0.5625,3.25 8.1562,0 4.8126,2.375 7.6874,1.1875 c 0,0 4.0522,2.2446 4.5,2.4688 0.4479,0.2241 5.875,1.5 5.875,1.5 l 4.75,0.875 7.0313,2.2187 5.0625,2.0625 7.2188,2.125 4.3437,0 0.625,-0.7812 -3.3125,-0.875 -5.625,-1.8438 -4.6562,-2.125 -8.25,-1.8125 -3.7813,-0.9687 -5.25,-1.5 -6.4063,-1.7188 -4.9062,-1.5312 -4.9062,-1.875 -5.3126,-0.6563 -4.0937,-2.2813 -4.125,-0.094 z m 74.3437,19.0937 0.2188,1.0938 8.0938,1.1875 6.7187,2 6.5625,1.8125 c 0,0 6.1227,1.8776 6.9062,2.4375 0.7841,0.5597 2.5313,0.5625 2.5313,0.5625 l 0.1563,-2.0625 -6.6563,-2.6875 -9.5,-1.6562 -7.75,-1.75 -7.2813,-0.9376 z"
     transform="matrix(0.36166667,0,0,0.36166667,0,383)"
     id="rect8128"
     inkscape:connector-curvature="0" /><path
     style="fill:#009c31;fill-opacity:1;fill-rule:evenodd;stroke:none"
     d="m 1085.3125,-2152.7188 -1.3437,2.8438 -4.3438,2.2188 -3.3125,3.0937 -3.5625,2.625 -2.1562,3.4063 -5.375,3.2187 -6.9688,0.5 -3.8125,2.5937 -1.5625,5.7813 -1.5938,6.9063 -2.8437,3.7187 -1.5937,3.4687 0,8.0938 1.3437,2.4375 0.9687,4.5 2.9063,3.3437 2.1563,4.2813 -2.375,2.375 -2.1563,1.8125 -1.0937,3 -2.375,0.25 -5.1563,3.3125 -4.5,2 -9.5937,0.9375 -0.5313,9.5625 -0.4063,4.2187 -2.125,1.0313 0.3126,4.5937 2.0624,2.2188 1.7188,2.125 2.7812,2.4375 3.1563,0.9687 2.7813,2.375 2.2187,2.6876 0.1563,8 -3,2.9374 1.5,2.375 3.9374,3.4063 2.625,3.3125 2.625,7.6875 2.75,3.9375 c 0,0 2.2859,3.0476 2.625,3.5 0.3392,0.4525 -0.3124,5.7812 -0.3124,5.7812 l -1.5938,1.3438 -0.875,3.4062 -2.2812,0 -1.8126,1.8126 -7.375,7.375 -0.5624,13.2812 -3.7188,4.4375 -2.375,2.9375 -4.2812,4.9688 -4.1876,2.875 -2.6874,4.3437 -5.6876,3.6563 -3.9687,-0.5 -1.8125,-2.6876 -2.7188,-0.3124 -1.875,2.2187 -7.12495,3.1563 -4.75,3.8124 -2.78125,5.9376 -4.28125,3.5624 -10.53125,1.6563 -0.625,12.4375 -1.34375,2.2812 -5.71875,4.125 -4.8125,4.1876 3.46875,4.125 2.3125,4.8437 3.15625,3.1563 0.625,12.1874 -2.53125,2.8438 -2.53125,7.0625 -2.90625,3.4687 -3.03125,0.5 -1.71875,4.6563 -0.5,5.3125 -1.8125,2.5312 -0.875,5.5313 -3.15625,0.3125 -1.8125,-2.8438 -7.53125,-1.0937 -11.8125,0.8437 -6.5625,0.4063 -0.71875,1.9687 -1.5625,2.375 0.15625,6.6563 c 0,0 1.98543,4.6339 2.4375,5.3125 0.45276,0.6788 1.84375,2.625 1.84375,2.625 l 0.84375,8.7812 -2.1875,1.8126 -2.15625,3.6562 -2.28125,3.4062 -0.5625,10.0313 -1.75,1.3437 -3.15625,-0.5312 -4.34375,-3.1875 -5.15625,-2.4375 -3.96875,-1.4375 -2.4375,-1.3437 -0.3125,-5.9376 -2,-0.7812 -1.40625,-2.8438 -1.53125,-2.5624 -6.15625,0.5 -1.28125,2.375 -2.28125,2.375 -0.0937,3.625 -3.40625,3.6562 -3.78125,2.6875 -0.8125,3.4687 c 0,0 -2.84375,1.7039 -2.84375,2.1563 0,0.4525 0.65625,7.5937 0.65625,7.5937 l 1.71875,1.8126 0.875,8.4687 12.28125,0.7187 1.75,1.125 2.28125,4.4063 2.46875,3.0313 0,8.4687 4.1875,0.4687 3.40625,3.0938 4.28125,0.875 -0.15625,1.3438 -1.84375,2.375 -2.59375,1.5624 -0.5,6.8126 -2.125,2.9374 -2.625,2.6876 -3.21875,2.625 -5.5625,1.5624 -4.90625,2.1563 -1.90625,1.75 -2.6875,2.125 -2.75,2.2187 -0.1875,4.125 5.15625,1.6563 1.5,1.9687 3.03125,3.3438 5.75,4.4062 3.09375,2.875 -0.21875,6.875 -1.59375,2.6876 -2.375,4.9062 -4.65625,3.9688 -5.09375,4.8124 -2.4375,5.4688 0.21875,10.6875 2,5.7187 2.125,5.2188 2.3125,4.9062 7.8125,2.625 9.34375,1.25 c 0,0 1.29748,1.2739 1.75,1.5 0.45254,0.2263 3.1875,3 3.1875,3 l 2.4375,2.5626 -0.0625,5.0624 -1.84375,1.25 -2.0625,4.5938 1.03125,7.375 2.6875,4.75 2.71875,4.5 0.625,4.125 -1.5,2.4375 -4.03125,0.5 -2.5625,2.9063 -2.4375,2.875 -4.90625,1.875 -1.65625,3.6562 -3.40625,1.1875 -2.625,5.4687 -2.59375,4.75 c 0,0 -1.03125,16.2783 -1.03125,16.8438 0,0.5653 -2.46875,4.2812 -2.46875,4.2812 l -2.4375,1.8126 -8.65625,0.875 -8.6875,2.9374 -12.1875,-0.875 -0.8125,-1.9062 -1.5625,-1.8125 -1.59375,-1.9063 -1.75,-3.7812 -1.90625,-0.1562 -3.46875,-2.7813 -3.71875,-4.3437 -5.15625,-1.5313 -6.71875,-2.125 -8.5625,0.094 c 0,0 -1.41085,1.3334 -1.75,2.125 -0.33896,0.7917 -6.3125,2.7813 -6.3125,2.7813 l -3.5625,1.8125 -3.96875,2.4375 c 0,0 -2.66063,3.7664 -3,4.2187 -0.33896,0.4526 -4.125,3.625 -4.125,3.625 l -3.25,3.5 -3.46875,3.7188 -3.875,1.6562 0,2.3126 0.21875,4.5 10.84375,1.8124 1.5,7.0626 2.78125,1.5624 c 0,0 1.70393,1.9033 2.15625,2.4688 0.45252,0.5653 11.78125,-0.4688 11.78125,-0.4688 l 2.53125,2.2813 3.40625,3.3437 -1.65625,6.625 -3.5625,0.5626 -5.625,0.7187 -0.25,4.75 4.59375,1.4063 4.59375,1.9062 2,2 2.4375,0 -0.0625,2.2188 -2.875,5.2812 -2.59375,3.0938 -2.46875,1.8124 -5.125,-0.2187 -4.28125,-2 -2.625,-1.7187 -2.6875,-2.375 -3.40625,-1.4376 -3.96875,-2.375 -6.625,-0.625 -4.21875,-0.9687 -1.34375,-2.2187 -2.375,-3.0626 -1.5,-0.3124 -1.59375,1.6562 -3.46875,0.7188 -2.46875,2.125 -1.8125,2.2812 -1.34375,3.5 -1.96875,3.1562 -1.8125,1.8126 -2.46875,0.25 -1.8125,2.6874 -1.4375,-0.2187 -1.40625,-2.875 -2.78125,0 -2.15625,2.375 -3.15625,0.8125 -2.28125,2.2188 -3.25,-0.1563 -2.53125,-2.375 -2.875,0 -3,-4.5313 -1.5,-3.1562 -2.125,-3.4062 -2.6875,-2.0626 -2.9375,0.25 -2.625,2.125 -3.15625,-0.062 -1.59375,-2.0626 -7.59375,0.2188 -3.46875,1.8438 -7.84375,0 -4.21875,2.5937 -7.65625,0.625 -1.84375,2.375 -2.90625,-0.5313 -0.3125,-3.0312 -1.59375,-3.5625 -0.875,-4.8125 -3.09375,-1.125 -4.03125,-1.8125 -2.28125,-2.5937 -3.09375,-0.5 -3.34375,-2.5938 -5.4375,-0.6562 -4.0625,-1.0938 -5.6875,-1.0312 -2.625,-2.2813 -5.9375,-0.3437 -3.0625,1.125 -2.46875,2.2812 -4.34375,0 -2.625,-1.1875 -5.0625,-1.4063 -5,-1.3437 -2.375,-1.2813 -6.3125,-0.062 -1.1875,-1.2813 -3.09375,-3.1563 -4.53125,-1.8124 -3.625,-1.125 -2.375,-2.375 -4.4375,-2.625 -4.75,-1.0938 -2.53125,-3.1562 -2.78125,-1.0313 -2.125,-1.5 -3.8125,-2.7187 -3.09375,-2.125 -3.625,-1.75 -4.03125,-2.5938 -8.875,-0.4062 -7.53125,0.5624 -2.375,1.8126 -5.78125,2.625 -4.09375,1.5624 -2.78125,1.9063 -1.03125,5.2187 -3.3125,3.0313 -6.5,1.8125 -7.59375,0.2188 -2.0625,1.4374 -2.625,3.8126 -0.21875,5.125 0.21875,10.2187 -3.71875,4.8437 -2.6875,2.9063 -0.5625,11.3437 3.71875,4.6563 4.4375,7.4375 3.5625,5.4688 1.1875,5.3124 2.46875,4.5938 4.1875,1.5625 7.59375,-0.8437 3.71875,-2.875 5.5625,0 c 0.45229,0 5.375,0.1562 5.375,0.1562 l 3.71875,0 c 0,0 -0.86647,3.1101 -1.09375,3.5625 -0.22626,0.4526 -5.78125,0.25 -5.78125,0.25 l -0.65625,1.8125 -6.875,1.9062 -3.5625,2.375 -5.3125,2.0626 c 0,0 -2.72019,0.8942 -3.625,3.1562 -0.90459,2.2619 -3.71875,7.7812 -3.71875,7.7812 0,0 -2.38127,2.524 -2.78125,2.8438 -0.39998,0.3201 -0.875,8.6875 -0.875,8.6875 l -0.9375,2.875 -0.71875,1.6563 -2.21875,-1.6563 -1.59375,-1.5 -8.21875,-0.25 -5.40625,0.1563 -3.78125,2.9374 -2.78125,2.75 -0.21875,3.1876 -2.46875,1.9687 0.46875,5.9375 -2.0625,2.4688 -1.5625,4.0312 -2.0625,2.2812 -2.6875,0.25 -2.0625,2.4376 -3.40625,2.7812 -3.8125,2.4688 -2.28125,1.8124 -5.375,2.4376 -4.53125,2.9374 -4.125,0.4688 -4.25,2.0625 -5.875,0 -2.53125,2.9375 0,8.625 0.71875,12.8438 2.6875,4.75 0.7187,7.2801 2.21875,2.2188 0.21875,7.75 2.71875,4.2812 -3.5625,2.4375 -5.25,6.0937 -4.5,4.375 -1.34375,3.1563 -3.65625,3.1563 0,7.9374 2.6875,3.4063 -1.34375,1.9687 -3.875,5.9376 -2.4375,0 -2.46875,-1.5938 -3.875,-0.4688 -2.0625,2.0626 -1.96875,0.625 -2.78125,3.4062 -0.875,3.875 -4.09375,2.9375 -4.75,2.2187 -1.375,2.2813 -11.9375,4.2813 -7.4375,2.5312 -2.0625,3.5625 -1.59375,-0.875 -3.875,-2.9063 -10.125,0 -2.9375,2.4376 -4.34375,0.4687 -3.8125,2.6875 -1.1875,3.4062 -1.34375,5.4688 -1.96875,-1.1875 -1.59375,-2.2187 -2.53125,0 -0.46875,1.8437 -2.6875,0.625 -1.84375,2.5313 -2.6875,0 -2.4375,1.9687 -1.1875,6.0937 3.40625,3.6563 2.6875,2.2813 0,6.0937 -2.9375,2.2187 0.71875,8.1563 -2.6875,1.1875 -0.46875,3.5625 -2.9375,3.1875 -5,3.625 -2.28125,2.0625 0,7.4375 1.1875,2.0625 2.4375,1.9687 0,4.375 0.25,5.8438 2.21875,1.3438 0,2.3124 -1.34375,0.625 -5,2.7813 -2.4375,0.375 -2.3125,2.3125 -4.03125,1.8125 -9.25,1.125 -2.9375,2.0313 -6.09375,1.3437 -4.125,1.125 -5.875,2.6875 -6.78125,3.4062 -4.0625,4.3438 -4.96875,5.625 -5.46875,4.5312 -3.8125,3.625 -1.8125,4.0313 -1.8125,3.4063 0,5.7187 -1.8125,2.2187 -2.71875,3.625 0,6.5626 0.25,6.5937 2.21875,1.3437 0,7.6563 3.875,3.4063 4.03125,2.9374 2.9375,1.125 0,15.1876 2.0625,6.9687 0.25,4.75 2.03125,7.2813 2.71875,7.2187 2.6875,5.5937 0.6875,13.625 8.5625,11.3438 2.0625,6.5625 1.09375,4.9063 0,5.4687 4.75,2.0625 5.9375,1.9688 6.59375,1.8124 4.28125,0.7188 2.1875,2.4375 4.125,0.5 3.1875,-5.4687 0.625,-4.5313 1.40625,-4.5 3.34375,-2.9375 3.875,-2.6875 4.28125,-2.2813 7.90625,0 11.5625,0 3.625,2.5313 4.0625,0.1563 5.6875,3.4062 8.78125,1.3438 8.15625,1.5937 6.34375,4.0937 5.375,0.875 7.75,0.4688 3.8125,1.3438 6.09375,2.0624 12.4375,1.125 3.625,2.6876 3.65625,1.8124 4.28125,3.1563 6.8125,0.25 5.84375,-0.875 2.15625,-2.6875 3.5625,-6.0938 8.46875,-8.5624 4.5,0 1.90625,-3.4688 2.0625,-1.4375 c 0,0 -0.15185,-1.0899 -0.3125,-1.25 -0.15948,-0.1597 -2.375,-1.9063 -2.375,-1.9063 l 0.9375,-1.75 3.625,-3.7187 1.375,-2.2813 6.46875,-0.25 1.90625,-1.9687 9.5,-0.625 3.96875,3 5.78125,0.875 c 0,0 0.66564,1.875 1.34375,1.875 0.67902,0 8.46875,1.1875 8.46875,1.1875 l 3.3125,2 4.84375,-0.875 1.03125,-2.8438 0.875,-2.8437 2.125,-2 5.6875,-0.2187 1.4375,-3.9688 0.78125,-3.1562 2.375,-2.9376 9.125,0.5626 1.875,-2.3126 1.90625,-0.7812 2.78125,-2.2188 4.125,-5.5624 8.625,-2.75 5.3125,-3.5 6.625,-2.6876 7.9375,-1.5 4.90625,-2.625 7.90625,0 2.625,2.7813 5.9375,1.0313 4.34375,3.8124 4.84375,4.4376 4.65625,1.8124 5.0625,0 1.34375,-2.7812 1.59375,-3.25 2.375,-1.9062 1.25,-1.9688 1.4375,-5.3125 2.0625,-2.2187 3.15625,-0.9376 2.3125,-1.8124 6.71875,-2.2188 8.0625,-0.9688 3.1875,-3.2187 5.375,-2.3125 4.34375,-1.9688 5.625,-2.5312 3.1875,0.375 2.90625,2.5312 1.84375,0.4063 2.0625,-2.8437 6.875,-0.25 2.625,0.9687 3.15625,2.2187 7.125,0 2.9375,-1.125 3.40625,-3.9374 3,-2.875 3.40625,-3.4063 1.8125,-1.9687 7.6875,-0.4688 13.0625,-0.5625 3.15625,-1.1875 9.34375,-0.4062 1.8125,-1.8126 4.75,-2.125 6.59375,-1.8124 2.375,-1.9063 2.84375,-2.3125 0.78125,-4.6562 1.59375,-5.3126 6.15625,-1.9062 8.15625,-1.9062 6.8125,-3.625 8,-1.5938 8.25,-2.9375 4.1875,-2.0313 7.53125,-2.7187 4.5625,-2.9063 5.5625,-1.75 1.8125,-1.4374 0.46875,-1.1876 -4.1875,-0.9374 -0.3125,-1.75 1.75,-1.5626 4.65625,-4.0624 3.71875,-2.125 4.125,-2.2188 5.53125,-2.4375 8.875,-2.0625 11.875,0 9.96875,-0.6562 3.65625,-2.2813 4.1875,-1.0313 3.46875,-2.7812 2.625,-2.375 2.21875,-2.5938 0,-3.4062 -2.6875,-2.0625 1.09375,-9.0313 3.1875,-3.3124 5.9375,-5.7188 7.5,-7.5 4.375,-1.4375 6.5625,-1.8125 5.0625,-2.625 1.59375,-3.7188 6.875,-1.0937 3.40625,-1.75 6.5625,-1.6563 2.15625,-1.1874 1.34375,-2.1563 3.9375,-3.5625 2.3125,-4.75 2.125,-2.375 0.40625,-4.9062 -3,-0.3126 3.09375,0.25 -0.0937,-8.1562 5.21875,-2.7812 2.78125,-2.375 3.96875,-4.125 5.6875,0 3.15625,-2.5313 14.90625,-0.3125 2.53125,-1.9062 2.53125,0 1.25,-5.0626 -2.84375,-2.8437 -5.0625,-4.125 -2.84375,-3.4687 0,-2.5313 -2.21875,-3.1875 -1.28125,-2.8438 -3.25,-5.8437 -0.15625,-10.8437 2.3125,-2.3126 0.78125,-8.7187 2.53125,-9.3125 c 0,0 1.58936,-0.9604 1.90625,-1.5938 0.31648,-0.6332 1.59375,-4.75 1.59375,-4.75 l 4.25,-5.0624 1.28125,-1.125 1.90625,-4.2813 1.40625,-3.625 1.75,0 c 0,0 0.9604,-2.0521 1.59375,-2.8437 0.63337,-0.7917 2.53125,-2.5313 2.53125,-2.5313 l 2.0624,-2.7187 1.9063,-1.5626 6.7813,0.1563 3.3437,-0.3125 2.2187,-2.2188 0.7813,-3.1874 -2.0625,-1.4063 -0.1562,-4.2813 2.6874,-3.3124 1.9063,-1.2813 0.1563,-3.7813 1.9062,-2.2187 3.6563,-2.375 3.1563,-3.3437 2.0625,-2.5313 c 0,0 3.9602,-0.9604 4.5938,-1.5937 0.6331,-0.6333 4.5937,-2.5313 4.5937,-2.5313 l 3.7813,-3 1.2812,-2.2187 2.375,-2.2188 2.8438,-0.625 1.75,-1.5938 0.7812,-3.4687 -0.3125,-9.0313 -1.9063,-2.6874 -1.3437,-6.25 -0.25,-16.0938 3.1875,-3.1562 0.7188,-16.375 1.875,-3.1876 0.5624,-7.6562 c 0,0 2.7835,-4.0416 2.625,-4.4375 -0.1583,-0.3958 1.875,-7.2813 1.875,-7.2813 l 2.7188,-6.0937 3.7188,-3.25 1.25,-1.4375 1.6562,-4.125 2.375,-4.9688 2.7812,-5.0624 2.1563,-5.4063 6.4063,-5.5313 2.2187,-2.625 1.5625,-4.5624 4.2188,-4.6876 1.875,-1.3437 1.5937,-6.25 2.3125,-5.2187 5.375,-5.7813 5.3125,-4.8437 4.1875,-1.5 4.8125,-5.0626 5.3125,-2.5312 2.0625,-3.8125 5.625,-1.5625 6,-1.5938 1.8437,-1.9687 4.75,-1.375 4.8126,-1.875 6.0312,-1.0313 5.125,-2.1562 4.5938,-1.9688 2.875,-1.6562 5.5937,-1.5938 3.0313,-2.2187 4.4374,-3.7813 7.0938,-2.375 0,-478.125 -3.2188,-1.5 -3.4062,-2.5312 -9.2812,0.4688 -2.2188,1.9062 -4.8125,-0.4688 -4.5937,-5.3124 -0.8126,-2.8438 -3.7187,-7.375 -2.5313,-2.5312 -4.8124,-3.7188 -1.5938,-3 -3.9688,0 -1.5,2.8438 -8.4687,-1.0938 -6.5625,-2.8438 -10.375,-2.9374 -7.8438,-1.4376 -0.1562,-4.5937 -2.0625,-1.9687 -0.625,-5.5313 -1.5937,-2.4687 -3.4063,-2.2188 -1.7187,-2.5312 -3.7188,-2.4376 -0.3125,-3.75 -2.1563,-1.3437 -0.1562,-3.4687 -2.125,-2.0626 -1.6875,0 z m -37.3437,756.375 -0.4063,6.9063 1.1875,0.625 1.5,-0.4687 1.0312,-2.0626 3.6563,0 0,-1.9062 -1.4375,-1.0938 -1.0312,-1.9062 -4.5,-0.094 z"
     transform="matrix(0.36166667,0,0,0.36166667,0,383)"
     id="rect8130"
     inkscape:connector-curvature="0" /><path
     style="fill:#009cce;fill-opacity:1;fill-rule:evenodd;stroke:none"
     d="m 2142.3125,-2287.3125 -4.9063,1.3437 -9.4374,3.6563 -1.3438,0.4375 0,424.75 1.2812,-1.7812 3,-0.3438 3.5,3.0312 2.8438,0 1.5938,-2.0624 0.1562,-9.8126 1.5625,-3.6562 1.125,-3 2.2187,-2.5312 6.1563,0.4687 1.4375,1.75 1.0938,2.6875 4.4374,1.5938 2.5313,3 3.1875,0.9374 7.2812,3.6563 3,1.5625 4.125,0.5 1.9063,1.4062 5.5313,1.75 2.5312,1.9063 3.1562,0.9375 1.75,1.75 1.2813,1.75 4.9063,2.375 4.25,1.25 1.75,1.4375 4.75,0.9375 2.2187,2.0625 4.125,1.2813 2.0625,1.0937 3.9375,1.2813 1.75,1.0937 2.8437,1.9063 3.8126,1.4062 2.8437,2.7188 3.3437,1.5624 3,1.4376 1.75,1.25 1.4063,2.5312 -1.0937,1.75 -4.2813,0 0.1563,0.9688 3.8124,1.25 0.625,1.2812 9.5,1.0938 1.75,0.094 0.8438,0.4687 0.8125,4.2813 2.6875,0 2.125,1.7187 4.375,1.3438 1.1875,4.125 2.0313,-1.5 -0.9376,-2.625 -3,-2.75 -4.1874,-2.3125 -3.0313,-1.9063 0.3125,-0.9374 1.125,0 2.7812,1.2812 3.3126,0.7812 5.8437,3.1563 1.4375,2.0625 2.8438,0.1562 1.2812,3.5 3.1562,1.0938 3.5,2.375 3.9376,1.9062 3.9687,1.4376 4.9063,4.5 3.5624,3.9687 4.1876,1.5 3.0937,3.9375 5.2187,5.3125 3.6563,2.7813 2.75,2.6874 2.375,2.8438 0.8125,2.375 1.0938,2.0625 0,6.3437 -0.3126,2.2188 -0.9374,0.625 -6.6563,0.3125 -2.2187,2.8437 2.2187,2.8438 4.5937,0 3.1563,-1.4062 3.3437,-0.3126 2.0313,1.5626 3.0313,5.4062 0.7812,5.0625 0.625,3.1563 0.3125,3.8124 3.6563,0.3126 1.9062,-1.9063 5.0625,-0.625 1.5937,-3 2.2188,-2.2187 3.9375,0 1.75,2.375 4.75,1.4062 4.2813,2.375 2.6874,2.2188 1.9063,3.1874 1.4063,4.0938 4.125,5.7188 2.5312,5.0624 2.2188,2.5313 2.2187,2.0625 1.2813,1.5625 4.0937,0.6563 1.75,-2.2188 6.1875,-0.4688 1.7188,2.375 2.875,-0.1874 1.7187,2.2187 3.8125,1.4375 1.0938,1.4375 2.875,0.9375 2.375,1.9062 2.0312,0 1.2812,-2.0624 1.75,-3 0.4688,-1.9063 2.375,-1.4375 0.4688,-1.5625 1.75,-3.3437 1.4062,0.3124 1.2812,2.375 5.2188,1.2813 3.3438,3 2.6874,2.0625 1.9063,1.4375 0.625,1.4063 1.75,1.75 0.4687,3.3124 0.1563,4.2813 1.25,1.125 0.9687,3.9375 2.375,2.375 1.5626,1.9062 3.9687,0.625 1.9063,2.2188 1.75,2.6875 1.25,2.375 2.9374,-3.4687 -2.8437,3.625 3,1.5312 c 0,0 1.6823,0.7318 1.9063,0.8438 0.2241,0.112 3.5624,1.6874 3.5624,1.6874 0,0 1.9948,3.0443 2.2188,3.1563 0.2242,0.1121 4.7825,1.7826 5.0625,2.0625 0.2802,0.2802 2.8437,3.3125 2.8437,3.3125 l 4.4376,1.125 9.6562,3.0937 8.2188,1.875 4.4374,1.9063 1.5938,1.5937 0.625,4.4376 5.4062,3.7812 0.9376,2.875 3.1562,0 0.6562,-2.875 3.1563,0.3125 1.25,3.1875 0.6563,2.8438 0.9374,4.4374 -2.8437,1.5938 0,7.5938 3.1563,0.9374 3.1874,2.2188 1.9688,-2.125 4.75,-0.5625 1.0312,2.125 0.375,3.5625 2.7813,2.2188 6.5625,6.9062 17.1875,0.875 0.875,2.6875 4.5,0.9375 1.75,2.2188 -2.5937,2.2187 -1.8438,7.1875 1.3438,8 3.5624,3.1875 0.5,3.5625 3.5626,1.8125 0,3.1563 2.6874,2.6874 2.2188,1.75 0,4.0313 2.6875,2.2187 4.5,2.3126 3.5625,2.6874 2.6875,3.9688 2.6875,0.9375 0.4062,3 1.5938,0.094 2.0625,-5.3124 c 0,0 1.902,-3.8646 2.2187,-4.6563 0.3166,-0.7917 2.6876,-7.4687 2.6876,-7.4687 l 7.5,-1.7188 11.0312,0.2188 1.9688,2.4687 8.7812,1.25 5.875,3.3437 8.2188,4.5 1.2812,5.7188 1.875,5.2812 5.4062,0.875 5.375,5.7813 3.1563,1.8125 4.4375,4.0625 5,1.8125 4.4375,1.3438 5.375,2.2187 5.8437,0.875 1.2813,3.5625 3.1563,4.5 1.3437,7.2188 3.1875,3.9374 2.6875,7.2188 4.4375,3.1562 0,2.6876 5.8438,4.4374 5.7812,4.0313 8.0625,1.8437 4.0625,1.3438 1.3438,4.9062 3.1562,1.3438 6.6562,0 1.3438,4.9062 1.8125,4.5 5.375,1.75 3.0937,1.8126 5,0.4062 4.4376,2.6875 2.375,4.5937 3.7187,1.2813 0.9375,4.0313 2.625,2.4374 4.8125,2 3.8125,0.9376 1.5938,-3.4688 2.4374,1.1875 0.5626,1.25 3.5624,2.4687 5.625,2.4376 4.9688,1.8437 3.9688,4.9063 6.3437,5.0624 1.25,1.5626 1.3437,1.5312 1.5938,-0.875 2.4688,-2.9375 1.8124,-2.2187 1.75,-3.3126 0.8438,-3.6562 2.7188,-1.5 0.2187,-5.875 -2.2187,-1.8125 -2.2188,-4.9063 c 0,0 -2.4844,-1.5418 -3.1562,-2.4374 -0.6719,-0.8958 -1.9688,-4.5313 -1.9688,-4.5313 l -5.875,-4.6563 -2.4375,-3.1874 -1.3437,-7.8126 -4.2813,-4.4374 -0.4063,-3.5626 -2.6874,-5.1562 -2.0626,-2.5312 -2.6874,-3.5626 -2.9376,-1.3437 -2.8437,-5.375 -0.25,-3.0937 1.5937,-2.6876 5.375,-0.4687 0.1563,3.375 -0.625,4.6875 0.25,2.4375 1.9687,2.4687 1.8126,1.0938 3.3437,0 0.6875,-2.6875 2,-1.5 2.9375,0.1563 -0.875,-4.1876 -2.0625,-1.5937 1.8125,-2.4375 4.6875,-5.1562 3.2188,-3.8126 1.6874,-2.4374 7.4376,0 -0.5626,2.8437 1.5938,6.6563 3.5625,0 0.9375,-4.8438 1.1875,-3.4688 4.75,0 1.5937,3.7188 1.25,3.875 2.3126,6.1875 2.2812,1.9687 2.2188,5.625 2.0624,1.9063 0.625,4.9063 2.9376,0.4687 1.75,1.6563 5.3124,3.1874 4.4063,0.8438 1.8437,8.0938 12.5,0.875 4.5,-0.875 9.8126,-2.2188 2.7187,4.0312 4.0313,1.3438 1.8124,13.375 4.0313,3.6562 5.4063,3.0938 2.6874,2.2812 4.4376,1.2813 0.4687,7.6563 4.4375,2.7187 11.2188,3.5625 6.2812,7.125 8.9375,7.6562 6.25,8 3.625,2.6876 8.0937,0 3.0938,2.6874 5.375,0.5 1.3438,-3.5624 1.8124,-3.1876 3.5626,-7.5937 4.9062,-4.5 2.7188,-5.7813 10.2812,0.375 1.25,-2.2812 2.1562,0.875 0.625,2.4375 6.0313,2.4687 8.5313,4.5 1.9062,-3.25 2.9375,-5.5937 2.125,-4.375 c 0,0 2.0208,-6 2.4687,-6 0.4477,0 8.2188,-8 8.2188,-8 l 8.5625,-8.4687 2.6875,-3.6563 5.7812,-1.3437 2.2813,-1.75 2.2187,-6.7188 4.4376,-3.5625 6.3437,-4.9063 3.0937,-6.3437 1.3438,-4.4375 0.6875,-2.9062 2.2187,-0.875 0.3438,-2.1563 -2.4688,-1.3437 -1.3437,-5.8438 -2.4687,-2.4688 -5.125,-4.25 0.2187,-2.875 -5.125,-5.9374 -2.625,-1.5 -5.9375,-1.75 -1.6562,-5.9376 -6.5,-1.0937 -1.0313,-1.5937 -4.9687,-0.5313 -2.4688,-1.8437 -15.125,0 -5.1562,1.5937 -2.2813,1.1875 -3.875,2.0625 -1.3437,3.7187 -0.8126,2.8438 -3.375,2.0625 -4.2187,3.5625 0.3125,7.2812 -1.8125,1.2813 -0.4063,4.1875 -2.125,2.9375 -2.8437,2.2187 -0.1563,5.9376 c 0,0 -1.3645,-0.01 -1.8124,-0.3438 -0.4477,-0.3362 -1.8438,-2.75 -1.8438,-2.75 l -1.0938,-1.9062 -4.1874,-1.8126 -2.9376,-2.625 -0.5624,-3.5624 1.5,-1.6563 5.7812,-1.4375 2.2188,-2.0625 3.3124,-1.875 0.7188,-5.4687 -0.9375,-17.75 -6.0313,-0.9376 -4.5937,-4.1874 -1.9687,-0.875 L 2964,-1550 l -1.1875,-1.9062 -3.0937,-5.9376 -0.5313,-4.0312 -1.75,-3.0938 -1.8125,-7.125 3.5625,-3.5624 0.4687,-4.4376 -2.2187,-3.625 -1.3437,-11.6562 3.5624,-3.0938 -2.6874,-3.1562 -2.6876,-6.25 -4.9062,-1.8125 -2.2188,-4.2187 -4.0624,-0.4688 -2.9063,3.0938 -4.6875,5.2187 -4.0312,0.625 -2.4688,-2.4375 -2.9062,-3.5625 -13,0 -3.7813,1.3437 -2.9375,3.5626 -4.75,-1.5938 -3.3125,-2.2188 c 0,0 -1.1461,-2.9062 -2.9375,-2.9062 l -5.7812,0 -2.4688,1.9688 -3.7812,0 -3.6563,2.9374 -2.2187,1.0938 -3.3126,1.8125 -1.3437,0.25 -0.7187,2.6875 -2.9376,0.25 -1.9687,-3.1875 -1.8125,-2.6875 -0.4062,-2.9062 1.9687,-1.5313 5.4063,-6.3125 5.7812,-4.6875 4.25,-0.4687 6.25,-8.0626 1.8438,-5.3124 5.8437,-2.5313 2,-4.6875 5.125,-7.125 5.7187,-1.1875 -0.25,-1.5625 -3.5624,-2.7812 -1.0313,-1.5938 -11.7813,-0.375 -1.2812,3.0938 -2.625,-1.5313 -4.1875,-5.375 -1.25,-1.5 -2.1563,-3.7187 -0.1562,-5.625 -5.7812,-1.1876 -6.9688,1.4376 -0.4688,2.2812 -2.125,0 c 0,0 -2.375,2.2146 -2.375,2.5312 0,0.3167 -0.25,3.6563 -0.25,3.6563 l -3.875,3.625 -3.25,0 -2.5312,3.25 -5.1562,3.9687 -2.5313,2.375 -1.5625,4.5938 -2.0625,6.9688 -2.625,5.4687 -1.0937,3.375 -1.125,1.8437 -1.4063,1.9063 -1.5937,0.062 -2.3126,-4.75 c 0,0 -0.5271,-3.9624 -0.8437,-4.4375 -0.3166,-0.4749 -2.625,-7.75 -2.625,-7.75 l -0.7813,-2.375 0.4688,-2.625 1.9688,-2.125 1.125,-8.5625 2.4374,-4.2812 2.625,-5.4376 1.9063,-1.4374 0.375,-8.7813 2.8437,-7.125 2.7813,-5 2.5313,-0.9375 c 0,0 0.098,-1.4978 -0.2188,-1.6562 -0.3166,-0.1584 -2.0581,-2.2166 -2.375,-2.375 -0.3166,-0.1584 -3.3438,-2.6876 -3.3438,-2.6876 l -7.3437,-0.5 -2.3125,-2.2187 -1.1875,-2.375 -2.5937,-2.2187 -2.3126,-5.0626 1.75,-1.5624 1.5626,-12.0313 2.0624,-0.9687 0.1563,-9.9688 -3.4687,-1.9062 -1.4376,-1.5938 -0.9374,-7.75 -2.6876,-12.5 -2.0624,-2.2188 -1.2813,-1.9062 -10.125,-1.4062 -1.5937,-2.2188 -3.7813,-1.125 -1.4375,-8.375 -9.6562,0 -1.5938,-2.375 -4.25,-0.3125 -4.125,-4.5937 -1.75,-3.3438 -2.2188,0 -0.9374,1.5938 -3,0.7812 -1.125,3.3438 -5.2188,0 -0.625,-3.1876 -5.7188,-4.4374 -3.9374,-1.5626 -6.1876,-3.8124 c 0,0 0.1645,-3.1563 -0.4687,-3.1563 -0.6332,0 -4.4375,-3.8125 -4.4375,-3.8125 l -3.9688,-0.9375 -3.3124,-4.125 -9.1876,-0.625 -5.0624,-4.2813 -1.5938,-2.6874 -0.1562,-8.875 -2.6876,-5.5313 -5.0624,-5.7187 -6.0313,-6.8126 -11.7187,-7.125 -2.8438,-1.875 -10.75,-1.2812 c 0,0 -0.6457,-6.0229 -1.4375,-6.6562 -0.7917,-0.6333 -5.375,-12.3438 -5.375,-12.3438 l -2.2187,-7.2812 -2.5313,-6.8126 0,-7.2812 c 0,0 -1.5792,-3.6458 -2.6875,-4.4375 -1.1085,-0.7917 -2.0813,-4.5875 -3.0312,-5.0625 -0.9476,-0.4749 -3,-3 -3,-3 l -8.2188,-1.75 -15.5312,-0.1562 -7.4376,0.625 -1.75,2.2187 -5.5312,-0.625 -1.75,-5.5313 -2.5312,-7.2812 -0.4688,-10.3125 -4.125,-2.8437 -0.3125,-12.6563 -2.5313,-1.5937 0.625,-10.7813 -1.9062,-5.375 -4.4375,-5.0625 -3.7813,-5.375 -0.625,-4.125 -15.8437,-0.625 -3.8125,-2.2188 -4.75,-5.375 -3.7812,-0.6562 -6.9688,-5.6875 -2.2188,-0.625 -5.7187,-3.1875 -7.6563,-7.0312 -0.875,-1.1876 -1.2812,-7.75 -2.2188,-1.5937 -2.5312,-1.6563 -3.9375,0 -0.4063,2.75 -1.9687,0 -0.7187,2.9376 -2.5313,2.0624 -1.4375,2.625 -3.25,0.1563 -2.125,1.9687 -1.9062,3.25 -1.5938,0 -1.5,-4.0312 -2.6875,-3.0312 -1.5937,-4.9063 -7.0313,-1.0937 -1.5,-1.8126 -5,-0.3437 -2.5937,-2.125 -5.7813,-0.625 -1.5,2.125 -3.0313,2.3125 -0.5312,5.8438 -2,2.3124 0.094,2.6876 -2.9376,0.2187 -2.2187,2.375 -0.7187,2.375 -7.4376,0.4063 -1.5937,-2.2188 -2.1875,-3.4688 -6.125,0.2188 -3.0625,2.7812 -12.375,0.375 -2.1875,1.9063 -12.9062,0 -2.5313,2.4687 -5.3125,0.063 -1.4375,2.2187 -4.0313,0.4687 -1.3437,2.0626 -2.9375,0.4062 -1.6562,1.6562 -1.3438,4.8438 -1.6562,5.5312 -2.3126,5.1563 0,0.062 -0.062,0 -3.25,-1.875 -3.5,-1.9062 -0.7813,-1.4376 -0.625,-2.375 0.625,-7.4374 2.8437,-1.2813 0,-3.4687 -1.4062,-2.8438 -2.375,0 -8.0938,0.3125 -1.0937,1.75 -6.5,3.9375 c 0,0 -4.1169,2.8708 -4.75,3.1875 -0.6334,0.3166 -5.8663,1.7145 -6.5,2.0313 -0.6331,0.3166 -3.4687,2.375 -3.4687,2.375 l -1.75,-1.5626 -2.5313,-3.3437 -0.625,-8.0625 0.3125,-6.6562 1.5938,-2.5313 2.375,-2.8437 2.0312,-5.0626 2.7188,-5.375 10.4374,-3.3437 2.8438,-9.5 1.125,-12.3437 1.5625,-2.8438 4.5937,-8.875 3.1876,-11.25 -0.1876,-12.8125 0,-2.2187 0.6563,-3.8126 4.0937,-0.9374 4.125,4.4374 3.5,3.1563 8.5313,-0.3125 4.125,-3.5 3.4687,-2.1875 3.5,1.25 0,-4.4375 -2.5312,-0.9375 -0.625,-7.5937 -1.2812,-10.1563 0.625,-11.0625 2.5312,-2.2188 1.9062,-4.4374 0,-2.8438 3.1876,-2.5312 -0.9688,-10.4688 3.5,-2.2188 0.9375,-9.5 -1.2813,-6.6562 -1.5624,-1.25 -0.3126,-3.8125 -2.5312,-1.5625 -0.9688,-6.0312 -3.1562,-1.9063 -5.375,-2.8437 -3.1875,-1.5938 -0.625,-8.2188 3.1563,-1.2812 0,-5.0625 1.2812,-3.4687 1.25,-1.5938 -4.0938,-2.5312 -5.4062,-4.75 -6,-2.5313 -4.125,-1.5937 -4.125,-3.7813 -5.375,0 -12.0312,4.4375 -11.0938,-2.2188 -5.0625,-1.2812 -2.2187,-4.125 -5.375,-3.4688 -5.0626,-3.5 -4.75,-0.9374 -4.125,-1.9063 -3.4687,-5.375 0,-8.875 4.75,-2.2187 -0.9687,-8.5313 -1.9063,-4.125 -3.7813,-1.5937 -5.0624,-3.4688 -3.1876,-3.8125 -3.7812,0.3125 -2.8438,15.8438 -3.1874,5.6874 -6.6563,-0.9374 -1.25,-4.75 -4.0313,-1.0938 -4.2812,11.625 -2.4688,10.8438 -4.4062,-1.0313 -5.875,-7.375 -5.2188,-3.9375 -5.875,-2 -3.25,2.9375 -6.5624,0.875 -1.8126,1.5937 -2.5312,2.9063 -3.7188,3.6563 -2.7812,2.125 -2.125,-1.9688 -4.2188,-5.375 -5.375,-5.375 -5.3124,-6.2812 -5.8438,-4.0313 -3.1562,-2.6875 -4.4376,-4.5 -4.9062,-2.2188 -2.6875,-5.4062 0,-4.9062 -5.4063,-3.5626 -6.25,-1.3437 -4.5,-1.3437 -2.2187,-0.9376 -2.6875,4.0313 -1.8438,9.0313 -1.3437,6.25 -2.6875,2.6874 -10.6875,0 -3.625,-1.8124 -10.6875,-2.6876 -11.7188,-0.4687 -3.9687,-0.875 0.875,-5.4063 4.4375,-1.7187 0.9375,-3.6563 3.5625,-3.0937 4.0312,-0.9375 0,-5.3125 -3.5624,-2.2813 -5.375,-4.4374 -3.5626,-3.6563 -17.9687,0 z m -15.6875,439.4687 0,19.8126 1.4375,-4.5938 1.4375,-9.1875 -2.5312,-5.5625 -0.3438,-0.4688 z m 0,35.2188 0,8.5938 0.8125,0.6874 3.7813,0.625 0.8124,-2.8437 -3.3437,-3.1563 -0.9375,-2.875 -1.125,-1.0312 z m 700.25,378.5312 -5.625,1.0938 -6,0.6562 -4.5,2.2813 -6.5,0.625 -4.2812,1.8437 0.25,2.9063 2.4374,3.3437 c 0,0 2.5365,1.9898 3.6563,2.4376 1.1198,0.4475 1.5,4.5312 1.5,4.5312 l 3.4063,2.6875 c 0,0 1.0463,3.1356 1.7187,4.0313 0.6711,0.8956 1.5937,2.625 1.5937,2.625 l 3.1876,0 0,-4.2188 2.4374,-2.6875 0.625,-2.9375 -0.375,-6 3.0626,-2.9375 0.5,-5.1563 2.9062,-2.4374 0,-2.6876 z m -6.0938,32.4376 -4.6562,0.5 0,3.5624 2.2188,1.0938 1.0937,2.2188 1.3437,1.125 0.9688,4.0312 1.5625,-0.25 1.2813,-4.6562 2.2812,-0.25 -0.9375,-4.6563 -4.1875,0 -0.9688,-2.7187 z"
     transform="matrix(0.36166667,0,0,0.36166667,0,383)"
     id="rect8132"
     inkscape:connector-curvature="0" /><g
     transform="matrix(0.67984992,0,0,0.67984992,588.59482,-444.36625)"
     id="g8145"><rect
       style="fill:#b5cece;fill-opacity:1;fill-rule:evenodd;stroke:none"
       id="rect3657"
       width="2"
       height="48.350132"
       x="161.09517"
       y="114.83156" /><path
       style="fill:#bdbdbd;fill-opacity:1;fill-rule:evenodd;stroke:#6b6b6b;stroke-width:2.93721581;stroke-linecap:butt;stroke-linejoin:miter;stroke-miterlimit:4;stroke-opacity:1;stroke-dasharray:none"
       d="m 106.34375,123.46875 c -0.0766,1.19155 -0.15625,2.38295 -0.15625,3.59375 0,30.58147 24.82478,55.40625 55.40625,55.40625 29.77276,0 54.07874,-23.53689 55.34375,-53 L 202,128.65625 c 0.0204,0.4729 0.0312,0.95959 0.0312,1.4375 10e-6,17.95171 -14.57954,32.5 -32.53125,32.5 -17.95172,1e-5 -32.5,-14.54829 -32.5,-32.5 0,-1.67238 0.13116,-3.33287 0.375,-4.9375 l -31.03125,-1.6875 z"
       id="path1873"
       inkscape:connector-curvature="0" /><path
       style="fill:#ffffff;fill-opacity:1;fill-rule:evenodd;stroke:none"
       d="m 107.49271,120.29973 109.07559,0 0,-65.042436 c 0,-13.401953 -19.35173,-20.721485 -53.9622,-20.721485 -39.64841,0 -55.11339,10.316757 -55.11339,20.721485 l 0,65.042436 z"
       id="path4544"
       sodipodi:nodetypes="cccscc"
       inkscape:connector-curvature="0" /><path
       style="fill:#ff0000;fill-opacity:1;fill-rule:evenodd;stroke:none"
       d="m 107.5,77 0,5.875 109.0625,0 0,-5.875 L 107.5,77 z"
       id="rect4548"
       inkscape:connector-curvature="0" /><path
       sodipodi:type="star"
       style="fill:#bdbdbd;fill-opacity:1;fill-rule:evenodd;stroke:none"
       id="path4552"
       sodipodi:sides="6"
       sodipodi:cx="125.9118"
       sodipodi:cy="53.9622"
       sodipodi:r1="11.136162"
       sodipodi:r2="5.5680809"
       sodipodi:arg1="0.52359878"
       sodipodi:arg2="1.068656"
       inkscape:flatsided="false"
       inkscape:rounded="0.05"
       inkscape:randomized="0"
       d="m 135.556,59.530281 c -0.18142,0.299203 -6.66124,-0.862308 -6.96427,-0.687355 -0.29468,0.170134 -2.33975,6.262738 -2.67993,6.255436 -0.34983,-0.0075 -2.58384,-6.199957 -2.88687,-6.374909 -0.29468,-0.170133 -6.59356,1.105091 -6.75733,0.806828 -0.16841,-0.306711 4.0774,-5.337649 4.0774,-5.687554 0,-0.340267 -4.25382,-5.157647 -4.0774,-5.448608 0.18141,-0.299202 6.66124,0.862308 6.96426,0.687355 0.29468,-0.170133 2.33975,-6.262737 2.67994,-6.255436 0.34982,0.0075 2.58384,6.199957 2.88686,6.374909 0.29468,0.170133 6.59357,-1.10509 6.75734,-0.806828 0.16841,0.306712 -4.0774,5.337649 -4.0774,5.687554 0,0.340267 4.25381,5.157647 4.0774,5.448608 z"
       transform="translate(8.346154,4.748674)" /><path
       transform="translate(64.03515,4.748674)"
       d="m 135.556,59.530281 c -0.18142,0.299203 -6.66124,-0.862308 -6.96427,-0.687355 -0.29468,0.170134 -2.33975,6.262738 -2.67993,6.255436 -0.34983,-0.0075 -2.58384,-6.199957 -2.88687,-6.374909 -0.29468,-0.170133 -6.59356,1.105091 -6.75733,0.806828 -0.16841,-0.306711 4.0774,-5.337649 4.0774,-5.687554 0,-0.340267 -4.25382,-5.157647 -4.0774,-5.448608 0.18141,-0.299202 6.66124,0.862308 6.96426,0.687355 0.29468,-0.170133 2.33975,-6.262737 2.67994,-6.255436 0.34982,0.0075 2.58384,6.199957 2.88686,6.374909 0.29468,0.170133 6.59357,-1.10509 6.75734,-0.806828 0.16841,0.306712 -4.0774,5.337649 -4.0774,5.687554 0,0.340267 4.25381,5.157647 4.0774,5.448608 z"
       inkscape:randomized="0"
       inkscape:rounded="0.05"
       inkscape:flatsided="false"
       sodipodi:arg2="1.068656"
       sodipodi:arg1="0.52359878"
       sodipodi:r2="5.5680809"
       sodipodi:r1="11.136162"
       sodipodi:cy="53.9622"
       sodipodi:cx="125.9118"
       sodipodi:sides="6"
       id="path4554"
       style="fill:#bdbdbd;fill-opacity:1;fill-rule:evenodd;stroke:none"
       sodipodi:type="star" /><path
       sodipodi:type="star"
       style="fill:#bdbdbd;fill-opacity:1;fill-rule:evenodd;stroke:none"
       id="path4556"
       sodipodi:sides="6"
       sodipodi:cx="125.9118"
       sodipodi:cy="53.9622"
       sodipodi:r1="11.136162"
       sodipodi:r2="5.5680809"
       sodipodi:arg1="0.52359878"
       sodipodi:arg2="1.068656"
       inkscape:flatsided="false"
       inkscape:rounded="0.05"
       inkscape:randomized="0"
       d="m 135.556,59.530281 c -0.18142,0.299203 -6.66124,-0.862308 -6.96427,-0.687355 -0.29468,0.170134 -2.33975,6.262738 -2.67993,6.255436 -0.34983,-0.0075 -2.58384,-6.199957 -2.88687,-6.374909 -0.29468,-0.170133 -6.59356,1.105091 -6.75733,0.806828 -0.16841,-0.306711 4.0774,-5.337649 4.0774,-5.687554 0,-0.340267 -4.25382,-5.157647 -4.0774,-5.448608 0.18141,-0.299202 6.66124,0.862308 6.96426,0.687355 0.29468,-0.170133 2.33975,-6.262737 2.67994,-6.255436 0.34982,0.0075 2.58384,6.199957 2.88686,6.374909 0.29468,0.170133 6.59357,-1.10509 6.75734,-0.806828 0.16841,0.306712 -4.0774,5.337649 -4.0774,5.687554 0,0.340267 4.25381,5.157647 4.0774,5.448608 z"
       transform="translate(64.03515,47.77454)" /><path
       transform="translate(8.346154,47.77454)"
       d="m 135.556,59.530281 c -0.18142,0.299203 -6.66124,-0.862308 -6.96427,-0.687355 -0.29468,0.170134 -2.33975,6.262738 -2.67993,6.255436 -0.34983,-0.0075 -2.58384,-6.199957 -2.88687,-6.374909 -0.29468,-0.170133 -6.59356,1.105091 -6.75733,0.806828 -0.16841,-0.306711 4.0774,-5.337649 4.0774,-5.687554 0,-0.340267 -4.25382,-5.157647 -4.0774,-5.448608 0.18141,-0.299202 6.66124,0.862308 6.96426,0.687355 0.29468,-0.170133 2.33975,-6.262737 2.67994,-6.255436 0.34982,0.0075 2.58384,6.199957 2.88686,6.374909 0.29468,0.170133 6.59357,-1.10509 6.75734,-0.806828 0.16841,0.306712 -4.0774,5.337649 -4.0774,5.687554 0,0.340267 4.25381,5.157647 4.0774,5.448608 z"
       inkscape:randomized="0"
       inkscape:rounded="0.05"
       inkscape:flatsided="false"
       sodipodi:arg2="1.068656"
       sodipodi:arg1="0.52359878"
       sodipodi:r2="5.5680809"
       sodipodi:r1="11.136162"
       sodipodi:cy="53.9622"
       sodipodi:cx="125.9118"
       sodipodi:sides="6"
       id="path4558"
       style="fill:#bdbdbd;fill-opacity:1;fill-rule:evenodd;stroke:none"
       sodipodi:type="star" /><path
       style="fill:#ff0000;fill-opacity:1;fill-rule:evenodd;stroke:none"
       d="m 162.59375,34.53125 c -1.17493,0 -2.30482,0.0134 -3.4375,0.03125 l 0,85.75 5.90625,0 0,-85.75 c -0.82767,-0.0087 -1.62279,-0.03125 -2.46875,-0.03125 z"
       id="path5452"
       inkscape:connector-curvature="0" /><path
       sodipodi:nodetypes="cccscc"
       id="path6340"
       d="m 107.49271,120.29973 109.07559,0 0,-65.042436 c 0,-13.401953 -19.35173,-20.721485 -53.9622,-20.721485 -39.64841,0 -55.11339,10.316757 -55.11339,20.721485 l 0,65.042436 z"
       style="fill:none;stroke:#b5cece;stroke-width:2.93721581;stroke-linecap:butt;stroke-linejoin:miter;stroke-miterlimit:4;stroke-opacity:1;stroke-dasharray:none"
       inkscape:connector-curvature="0" /></g></g></svg>